<mxfile host="app.diagrams.net" agent="Mozilla/5.0 (Windows NT 10.0; Win64; x64) AppleWebKit/537.36 (KHTML, like Gecko) Chrome/137.0.0.0 Safari/537.36" version="26.3.0">
  <diagram name="PÃ¡gina-1" id="0hYc28dVItaI5WHyA_La">
    <mxGraphModel dx="1678" dy="2093" grid="1" gridSize="10" guides="1" tooltips="1" connect="1" arrows="1" fold="1" page="1" pageScale="1" pageWidth="827" pageHeight="1169" math="0" shadow="0">
      <root>
        <mxCell id="0" />
        <mxCell id="1" parent="0" />
        <mxCell id="_ls4p_8NoOQRCQNngkVj-7" style="edgeStyle=orthogonalEdgeStyle;rounded=0;orthogonalLoop=1;jettySize=auto;html=1;exitX=0.5;exitY=1;exitDx=0;exitDy=0;entryX=0.5;entryY=0;entryDx=0;entryDy=0;" edge="1" parent="1" source="_ls4p_8NoOQRCQNngkVj-4" target="_ls4p_8NoOQRCQNngkVj-6">
          <mxGeometry relative="1" as="geometry" />
        </mxCell>
        <mxCell id="_ls4p_8NoOQRCQNngkVj-4" value="INICIO" style="rounded=1;whiteSpace=wrap;html=1;" vertex="1" parent="1">
          <mxGeometry x="353" y="200" width="120" height="60" as="geometry" />
        </mxCell>
        <mxCell id="_ls4p_8NoOQRCQNngkVj-11" style="edgeStyle=orthogonalEdgeStyle;rounded=0;orthogonalLoop=1;jettySize=auto;html=1;exitX=0.5;exitY=1;exitDx=0;exitDy=0;entryX=0.5;entryY=0;entryDx=0;entryDy=0;" edge="1" parent="1" source="_ls4p_8NoOQRCQNngkVj-6" target="_ls4p_8NoOQRCQNngkVj-8">
          <mxGeometry relative="1" as="geometry" />
        </mxCell>
        <mxCell id="_ls4p_8NoOQRCQNngkVj-6" value="int numeroN = 0&lt;div&gt;int result = 0&lt;/div&gt;" style="rounded=0;whiteSpace=wrap;html=1;align=center;" vertex="1" parent="1">
          <mxGeometry x="354" y="290" width="120" height="60" as="geometry" />
        </mxCell>
        <mxCell id="_ls4p_8NoOQRCQNngkVj-8" value="Bienvenido al programa que calcula la suma de N numeros, Ingrese un numero:&amp;nbsp;" style="shape=document;whiteSpace=wrap;html=1;boundedLbl=1;" vertex="1" parent="1">
          <mxGeometry x="320.5" y="390" width="187" height="90" as="geometry" />
        </mxCell>
        <mxCell id="_ls4p_8NoOQRCQNngkVj-16" style="edgeStyle=orthogonalEdgeStyle;rounded=0;orthogonalLoop=1;jettySize=auto;html=1;exitX=0.5;exitY=1;exitDx=0;exitDy=0;entryX=0.5;entryY=0;entryDx=0;entryDy=0;" edge="1" parent="1" source="_ls4p_8NoOQRCQNngkVj-9" target="_ls4p_8NoOQRCQNngkVj-15">
          <mxGeometry relative="1" as="geometry" />
        </mxCell>
        <mxCell id="_ls4p_8NoOQRCQNngkVj-9" value="leer: numeroN" style="shape=parallelogram;perimeter=parallelogramPerimeter;whiteSpace=wrap;html=1;fixedSize=1;" vertex="1" parent="1">
          <mxGeometry x="353" y="524.5" width="120" height="60" as="geometry" />
        </mxCell>
        <mxCell id="_ls4p_8NoOQRCQNngkVj-12" style="edgeStyle=orthogonalEdgeStyle;rounded=0;orthogonalLoop=1;jettySize=auto;html=1;exitX=0.5;exitY=0;exitDx=0;exitDy=0;entryX=0.498;entryY=0.87;entryDx=0;entryDy=0;entryPerimeter=0;startArrow=classic;startFill=1;endArrow=none;" edge="1" parent="1" source="_ls4p_8NoOQRCQNngkVj-9" target="_ls4p_8NoOQRCQNngkVj-8">
          <mxGeometry relative="1" as="geometry" />
        </mxCell>
        <mxCell id="_ls4p_8NoOQRCQNngkVj-18" style="edgeStyle=orthogonalEdgeStyle;rounded=0;orthogonalLoop=1;jettySize=auto;html=1;exitX=0.5;exitY=1;exitDx=0;exitDy=0;entryX=0.5;entryY=0;entryDx=0;entryDy=0;" edge="1" parent="1" source="_ls4p_8NoOQRCQNngkVj-15" target="_ls4p_8NoOQRCQNngkVj-17">
          <mxGeometry relative="1" as="geometry" />
        </mxCell>
        <mxCell id="_ls4p_8NoOQRCQNngkVj-22" style="edgeStyle=orthogonalEdgeStyle;rounded=0;orthogonalLoop=1;jettySize=auto;html=1;exitX=1;exitY=0.5;exitDx=0;exitDy=0;entryX=1;entryY=0.5;entryDx=0;entryDy=0;" edge="1" parent="1" source="_ls4p_8NoOQRCQNngkVj-15" target="_ls4p_8NoOQRCQNngkVj-23">
          <mxGeometry relative="1" as="geometry" />
        </mxCell>
        <mxCell id="_ls4p_8NoOQRCQNngkVj-15" value="Desde i = 1&amp;nbsp;&lt;div&gt;Hasta i &amp;lt;= numeroN&lt;/div&gt;&lt;div&gt;Incremento 1&lt;/div&gt;" style="shape=hexagon;perimeter=hexagonPerimeter2;whiteSpace=wrap;html=1;fixedSize=1;" vertex="1" parent="1">
          <mxGeometry x="339.5" y="630" width="147" height="80" as="geometry" />
        </mxCell>
        <mxCell id="_ls4p_8NoOQRCQNngkVj-19" style="edgeStyle=orthogonalEdgeStyle;rounded=0;orthogonalLoop=1;jettySize=auto;html=1;exitX=0;exitY=0.5;exitDx=0;exitDy=0;entryX=0;entryY=0.5;entryDx=0;entryDy=0;" edge="1" parent="1" source="_ls4p_8NoOQRCQNngkVj-17" target="_ls4p_8NoOQRCQNngkVj-15">
          <mxGeometry relative="1" as="geometry" />
        </mxCell>
        <mxCell id="_ls4p_8NoOQRCQNngkVj-17" value="result += i" style="rounded=0;whiteSpace=wrap;html=1;" vertex="1" parent="1">
          <mxGeometry x="353" y="770" width="120" height="60" as="geometry" />
        </mxCell>
        <mxCell id="_ls4p_8NoOQRCQNngkVj-20" value="INICIO" style="rounded=1;whiteSpace=wrap;html=1;" vertex="1" parent="1">
          <mxGeometry x="353" y="-300" width="120" height="60" as="geometry" />
        </mxCell>
        <mxCell id="_ls4p_8NoOQRCQNngkVj-21" value="FIN" style="rounded=1;whiteSpace=wrap;html=1;" vertex="1" parent="1">
          <mxGeometry x="355.5" y="970" width="120" height="60" as="geometry" />
        </mxCell>
        <mxCell id="_ls4p_8NoOQRCQNngkVj-24" style="edgeStyle=orthogonalEdgeStyle;rounded=0;orthogonalLoop=1;jettySize=auto;html=1;exitX=0.5;exitY=1;exitDx=0;exitDy=0;entryX=0.5;entryY=0;entryDx=0;entryDy=0;" edge="1" parent="1" source="_ls4p_8NoOQRCQNngkVj-23" target="_ls4p_8NoOQRCQNngkVj-21">
          <mxGeometry relative="1" as="geometry" />
        </mxCell>
        <mxCell id="_ls4p_8NoOQRCQNngkVj-23" value="cout&amp;lt;&amp;lt;&quot;El resultado es: &quot;&amp;lt;&amp;lt;result" style="rounded=0;whiteSpace=wrap;html=1;" vertex="1" parent="1">
          <mxGeometry x="320.5" y="870" width="190" height="60" as="geometry" />
        </mxCell>
      </root>
    </mxGraphModel>
  </diagram>
</mxfile>
